<svg xmlns="http://www.w3.org/2000/svg" viewBox="979.548 -400 552.839 553.751" xmlns:v="https://vecta.io/nano"><style><![CDATA[.B{fill:#17282f}.C{fill:#f3f2f1}.D{fill:#f68260}.E{fill:#dadbd8}.F{fill:#f03d5f}.G{fill:#33535f}.H{fill:#f8a58d}.I{fill:#fafaf9}]]></style><path d="M979.548-150.036v63.513c0 11.493 9.315 20.81 20.807 20.81H1228.1c11.492 0 20.808-9.316 20.808-20.81V-140.2l28.352-29.79-276.84-.865c-11.517-.036-20.872 9.29-20.872 20.808" class="C"/><path d="M1215.336-132.364l-206.662-.953.022-6.352 206.66.955-.02 6.35m0 20.898l-206.662-.955.022-6.352 206.66.955-.02 6.352m0 20.368l-81.77-.403.025-6.352 81.77.403-.025 6.352" class="E"/><path d="M1190.574 69.43v63.514a20.81 20.81 0 0 0 20.808 20.808h227.743c11.492 0 20.808-9.316 20.808-20.808V79.277l28.353-29.8-276.84-.864c-11.516-.036-20.872 9.29-20.872 20.807" class="C"/><path d="M1427.352 85.453l-206.662-.955v-6.354l206.66.956-.02 6.352m.002 20.898l-206.662-.955v-6.353l206.66.956-.02 6.35m.002 20.37l-81.77-.403.025-6.35 81.77.403-.024 6.35" class="E"/><path d="M1101.28-389.296h134.326a12.04 12.04 0 0 1 12.039 12.039v65.7a12.04 12.04 0 0 1-12.039 12.04H1121.62c-6.65 0-12.04-5.39-12.04-12.04v-69.44l-8.3-8.3" class="C"/><path d="M1179.15-325.424v42.127c0 7.62-6.177 13.8-13.8 13.8H1014.3c-7.623 0-13.802-6.18-13.802-13.8v-35.595l-18.805-19.757 183.613-.575c7.637-.024 13.843 6.16 13.843 13.8" class="E"/><path d="M1022.764-313.703l137.068-.632-.013-4.213-137.068.633.013 4.212m0 13.86l137.068-.632-.013-4.213-137.068.633.013 4.212m0 13.51l54.234-.268-.017-4.212-54.233.267.017 4.213" class="C"/><path d="M1465.298-130.076v42.125c0 7.62-6.18 13.8-13.8 13.8h-151.05c-7.623 0-13.8-6.18-13.8-13.8v-35.593l-18.805-19.76 183.614-.573c7.637-.024 13.844 6.16 13.844 13.8" class="E"/><path d="M1308.9-118.355l137.068-.633-.013-4.212-137.068.633.013 4.212m0 13.86l137.068-.633-.013-4.213-137.068.635.013 4.212m0 13.508l54.233-.267-.016-4.213-54.235.268.017 4.212" class="C"/><path d="M1335.905 79.053c-22.577-21.984-22.948-55.99-17.075-85.54.98-4.932 1.292-10.252 4.363-14.217s9.065-6.04 13.165-3.22c3.4 2.336 4.303 6.884 5.783 10.765 1.97 5.164 5.416 9.735 9.816 13.016 2.89 2.156 6.633 3.797 10.033 2.588 4.664-1.66 6.137-7.488 6.915-12.427l4.343-27.612c.777-4.94 1.588-9.98 3.888-14.41s6.404-8.225 11.312-8.772 10.27 3.11 10.47 8.1c.084 2.077-.668 4.096-.865 6.165s.385 4.492 2.237 5.38c1.873.9 4.076-.173 5.788-1.376 5.907-4.148 10.413-10 14.687-15.852s8.48-11.873 13.988-16.55 12.605-7.936 19.736-7.18 13.945 6.35 14.595 13.577c.653 7.25-4.56 13.643-9.897 18.548a111.64 111.64 0 0 1-26.507 18.103c-1.736.848-3.617 1.765-4.51 3.496-1.61 3.113.97 6.89 4.04 8.504 3.477 1.827 7.53 2.097 11.303 3.18s7.66 3.463 8.52 7.336c1.196 5.375-3.888 9.97-8.604 12.752-9.444 5.57-19.828 9.493-30.557 11.545-3.847.733-7.856 1.272-11.2 3.343s-5.836 6.216-4.637 9.98 5.555 5.624 9.473 5.54 7.656-1.588 11.503-2.363c7.2-1.448 15.877.452 19.26 7.02 2.224 4.32 1.597 9.724-.6 14.08s-5.77 7.83-9.476 10.97c-12.952 10.968-28.544 18.954-45.164 21.833s-31.433 1.968-46.127-6.306" class="F"/><g class="B"><path d="M1331.907 101.02c3.004-11.596 7.86-25.076 14.717-39.34 6.83-14.28 15.612-29.312 25.34-44.72l7.244-11.38c2.385-3.73 4.753-7.43 7.29-10.904 5.047-6.973 10.43-13.295 15.728-19.133s10.536-11.196 15.47-16.165c4.95-4.96 9.65-9.496 14.108-13.448 8.9-7.94 16.82-13.48 22.41-17.064 2.793-1.8 5.005-3.127 6.52-4.005l1.725-.99c.392-.216.595-.32.603-.308s-.18.147-.555.39l-1.68 1.067-6.42 4.148c-5.524 3.672-13.356 9.276-22.173 17.255-4.42 3.97-9.08 8.523-13.997 13.5-4.91 4.988-10.12 10.35-15.39 16.196-5.267 5.84-10.615 12.15-15.623 19.09-2.52 3.46-4.86 7.13-7.25 10.87l-7.237 11.377c-9.717 15.396-18.503 30.377-25.355 44.595-6.875 14.202-11.776 27.602-14.85 39.136"/><path d="M1386.763-5.32c-.063 0-.107-.777-.136-2.184l.035-5.955c.107-5.025.49-11.96.943-19.607s.74-14.57.768-19.585l-.001-5.94c-.012-1.404.012-2.183.076-2.187s.16.767.28 2.17c.13 1.4.233 3.433.293 5.948.137 5.03-.047 11.985-.5 19.64l-1.21 19.583-.327 5.937c-.08 1.4-.156 2.18-.22 2.177"/><path d="M1452.134-6.8c-.01.063-.93.02-2.58-.112l-6.997-.45c-5.913-.324-14.095-.485-23.13-.268-9.037.233-17.207.792-23.104 1.367l-6.983.73c-1.648.2-2.564.267-2.576.203s.9-.26 2.527-.56a122.26 122.26 0 0 1 6.965-1.027c5.896-.743 14.1-1.407 23.155-1.64 9.06-.216 17.272.05 23.2.543 2.963.224 5.35.512 6.993.747 1.644.243 2.545.405 2.54.47m-104.54 67.427c-.03.006-.136-.282-.308-.846l-.7-2.472-2.335-9.168c-1.87-7.767-4.116-18.576-6.435-30.54l-6.167-30.58-2.047-9.227-.543-2.515c-.115-.576-.16-.883-.13-.893s.136.284.3.847l.708 2.47c.607 2.15 1.403 5.283 2.335 9.167 1.87 7.767 4.117 18.58 6.435 30.545l6.167 30.576 2.047 9.225.544 2.515c.113.578.16.885.128.894m88.734-13.363c.003.032-.305.1-.893.207l-2.58.42-9.505 1.446-31.315 5.067-31.372 4.8-9.548 1.154-2.603.248c-.597.047-.913.055-.916.023s.305-.103.893-.2l2.583-.417 9.503-1.447 31.32-5.068 31.367-4.8 9.55-1.155 2.604-.246c.597-.047.9-.055.916-.023"/></g><path d="M1111.608-220.76c-4.12-3.196-5.963-8.856-5.103-14s4.182-9.7 8.483-12.648c2-1.363 4.453-2.444 6.768-1.764 2.163.636 3.67 2.74 4.107 4.952s-.035 4.508-.772 6.64c-2.53 7.307-6.32 13.913-13.484 16.82m-6.76 12.48c-8.124-7.4-19.972-10.513-30.685-8.033-2.728.632-5.798 2.073-6.248 4.837s2.023 5.116 4.45 6.523c10.096 5.853 23.773 4.753 32.804-2.64m-39.462-58.47c4.503-1.236 9.44-.124 13.423 2.3s7.103 6.085 9.6 10.03c4.832 7.632 6.534 17.9 6.75 26.923-10.025-.407-18.6-8.285-22.685-12.555-6.47-6.75-14.07-22.877-7.087-26.708" class="G"/><g class="B"><path d="M1120.01-194.644c-.588-1.067-1.545-1.82-2.5-3.78-1.88-3.912-4.417-9.475-5.646-16.096-1.224-6.63-.395-12.89 1.25-16.977.803-2.055 1.703-3.61 2.425-4.6.717-.997 1.193-1.484 1.24-1.448.173.112-1.6 2.216-2.99 6.292-1.428 4.036-2.12 10.093-.93 16.555 1.197 6.464 3.6 12.004 5.3 15.977"/><path d="M1120.104-194.52l-5.22-6.733-17.32-22.13-17.703-21.82-5.397-6.59-1.887-2.5s.83.755 2.186 2.243 3.3 3.665 5.646 6.387c4.714 5.44 11.102 13.06 17.947 21.65 6.846 8.593 12.85 16.523 17.1 22.33l4.964 6.93"/><path d="M1080.42-210.38c-.016-.068.6-.253 1.74-.532.567-.15 1.267-.305 2.094-.4.824-.105 1.763-.28 2.813-.3 2.094-.164 4.607-.076 7.365.28 2.75.413 5.737 1.132 8.74 2.277a42.26 42.26 0 0 1 7.985 4.228c2.274 1.6 4.185 3.235 5.618 4.77.76.724 1.333 1.488 1.87 2.123a14.69 14.69 0 0 1 1.275 1.711c.65.973.557 1.43.5 1.47-.16.116-1.18-1.936-4.15-4.796-1.47-1.443-3.385-2.983-5.634-4.504-2.28-1.473-4.915-2.9-7.83-4.057-2.93-1.117-5.835-1.844-8.51-2.3-2.685-.397-5.138-.557-7.196-.487-4.12.103-6.637.712-6.677.52"/><path d="M1304.097 129.83l-154-.712c-18.52-.084-33.47-15.165-33.39-33.686l1.632-386.082c.077-18.533 15.168-33.49 33.7-33.405l154 .712c18.523.085 33.47 15.165 33.39 33.687l-1.63 386.083c-.08 18.533-15.17 33.5-33.703 33.404"/></g><path d="M1305.82-310.02l-29.857-.137c-4.004-.02-7.265 3.36-7.28 7.545l-.025 5.416c-.016 4.187-3.277 7.565-7.28 7.547l-58.2-.27c-4.004-.017-7.235-3.427-7.217-7.613l.023-5.416c.017-4.185-3.215-7.595-7.22-7.612l-36.635-.17c-12.98-.06-23.547 10.416-23.6 23.395L1126.932 89.5c-.055 12.972 10.413 23.533 23.385 23.593l153.693.71c12.977.06 23.547-10.415 23.6-23.393l1.593-376.846c.055-12.972-10.413-23.533-23.385-23.593" class="I"/><path d="M1218.838 77.734c-.007 1.505-1.43 2.717-3.18 2.7s-3.167-1.235-3.16-2.74 1.43-2.718 3.183-2.7 3.165 1.233 3.16 2.74m9.824.046c-.007 1.504-1.43 2.717-3.183 2.7s-3.165-1.233-3.16-2.74 1.43-2.717 3.18-2.7 3.165 1.234 3.16 2.74m9.838.033c-.005 1.505-1.43 2.72-3.183 2.7s-3.165-1.233-3.16-2.74 1.43-2.717 3.18-2.7 3.167 1.233 3.16 2.74" class="G"/><path d="M1174.462-128.35c2.504.357 153.578 30 153.578 30v-30h-153.578m-47.53 190.393l162.9-22.535c-1.43.716-162.9 0-162.9 0v22.535" fill="#e7e8e5"/><path d="M1317.783-377.94c.192 0 .348 8.308.348 18.555s-.156 18.557-.348 18.557-.347-8.307-.347-18.557.155-18.555.347-18.555m65.76 42.706c.08.176-7.46 3.672-16.836 7.8s-17.04 7.35-17.117 7.175 7.46-3.67 16.837-7.8 17.04-7.35 17.116-7.175m-1.66-64.764c.02.013-.103.257-.357.7l-1.14 1.967-4.35 7.137c-3.733 6-9.107 14.13-15.192 23l-15.355 22.887-4.533 7.016-1.25 1.896c-.292.43-.456.65-.476.637s.103-.257.357-.7l1.14-1.965c.995-1.704 2.485-4.14 4.35-7.137 3.732-6 9.108-14.132 15.195-23.013l15.352-22.883 4.533-7.016 1.25-1.897c.292-.43.455-.65.476-.637" class="B"/><path d="M1474.074-243.025H1173.48c-6.492 0-11.755 5.263-11.755 11.755v93.24c0 6.492 5.263 11.755 11.755 11.755h22.395l3.915 22.023 20.268-22.023h254.015c6.492 0 11.755-5.263 11.755-11.755v-93.24c0-6.492-5.263-11.755-11.755-11.755" class="F"/><path d="M1350.055-192.448c0 .2-35.777.347-79.9.347-44.136 0-79.905-.156-79.905-.347s35.77-.348 79.905-.348l79.9.348m0-14.332c0 .192-35.777.347-79.9.347-44.136 0-79.905-.155-79.905-.347s35.77-.347 79.905-.347l79.9.347m0 28.506c0 .192-35.777.347-79.9.347-44.136 0-79.905-.155-79.905-.347s35.77-.348 79.905-.348l79.9.348m-55.13 14.684c0 .192-23.435.348-52.335.348-28.9 0-52.34-.156-52.34-.348s23.43-.347 52.34-.347l52.335.347" class="C"/><path d="M1338.258-75.395H1035.2c-4.542 0-8.224 3.683-8.224 8.224v98.648c0 4.544 3.682 8.225 8.224 8.225h220.104l20.037 21.77 3.872-21.77h59.045c4.54 0 8.224-3.68 8.224-8.225V-67.17c0-4.54-3.683-8.224-8.224-8.224" class="G"/><path d="M1326.37-24.525c0 .2-35.777.345-79.898.345-44.137 0-79.906-.155-79.906-.345s35.77-.348 79.906-.348l79.898.348m0-14.333c0 .192-35.777.347-79.898.347-44.137 0-79.906-.155-79.906-.347s35.77-.347 79.906-.347l79.898.347m0 28.508c0 .192-35.777.348-79.898.348-44.137 0-79.906-.156-79.906-.348s35.77-.347 79.906-.347l79.898.347m-55.13 14.683c0 .192-23.436.347-52.336.347-28.9 0-52.34-.155-52.34-.347s23.43-.348 52.34-.348l52.336.348" class="C"/><path d="M1478.264-185.678l-6.388-16.38-22.9 14.385 20.404 31.46s8.3-10.78 8.883-29.465" class="D"/><g class="B"><path d="M1442.134-235.084c.047-.015.336.75.823 2.145l1.94 5.95c1.575 5.045 3.58 12.07 5.476 19.91s3.315 15.01 4.215 20.217l.988 6.18c.205 1.464.295 2.276.248 2.284s-.228-.79-.515-2.24l-1.204-6.135a505.97 505.97 0 0 0-4.407-20.144 504.43 504.43 0 0 0-5.272-19.931l-1.728-6.01c-.405-1.42-.61-2.212-.564-2.227"/><path d="M1454.416-187.015c-.12-.148 5.584-4.996 12.74-10.825s13.057-10.437 13.18-10.29-5.583 4.996-12.74 10.828-13.056 10.436-13.177 10.287"/></g><path d="M1374.098-167.292l-4.353-2.264 5.685-18.704 2.963 10.08-4.295 10.888" fill="#a7aaa9"/><path d="M1378.392-178.18h0l-2.963-10.08 6.017-19.795c1.357 7.003-3.055 29.875-3.055 29.875" fill="#263f48"/><path d="M1513.6-244.16c-1.013 1.32-37.768 55.65-37.768 55.65l5.172 3.24 37.718-53.638-5.122-5.254" class="B"/><path d="M1485.462-209.33c-.104-.063.885-1.808 1.976-4.02l1.997-4.01c.103.036-.517 1.964-1.625 4.196-1.1 2.233-2.256 3.895-2.348 3.836" class="D"/><path d="M1370.394-231.74s1.444-.24 3.985.336a16.17 16.17 0 0 1 4.34 1.832c1.583.948 3.227 2.28 4.823 3.956 3.213 3.348 6.21 8.02 8.99 13.433 2.8 5.412 5.413 11.576 8.095 18.053l2.46 5.95-.272.148c-11.055 6.028-20.68 11.67-27.487 15.895l-7.976 5.044-2.145 1.377c-.492.31-.756.463-.768.444s.227-.207.695-.552l2.077-1.477c1.82-1.27 4.496-3.064 7.87-5.227 6.748-4.333 16.347-10.057 27.403-16.108l-.152.435-2.348-5.664c-2.68-6.475-5.267-12.63-8.02-18.027-2.735-5.4-5.663-10.05-8.78-13.388-1.55-1.67-3.14-3.004-4.67-3.963a16.56 16.56 0 0 0-4.207-1.901c-2.47-.644-3.923-.5-3.916-.597" class="B"/><path d="M1398.704-198.217c.085.172-8.707 4.693-19.635 10.096s-19.86 9.647-19.944 9.475 8.705-4.692 19.636-10.097 19.86-9.645 19.943-9.473m-15.754-27.352c.045.088-1.463.952-3.916 2.317l-9.57 5.34-9.524 5.43-4.008 2.152s1.38-1.07 3.756-2.573 5.7-3.507 9.435-5.615 7.17-3.915 9.683-5.17 4.104-1.965 4.145-1.883m29.28-2.9c-.02.08-1.044-.055-2.576-.693-1.53-.625-3.513-1.83-5.392-3.5s-3.336-3.428-4.348-4.7c-1.007-1.288-1.576-2.124-1.505-2.184.076-.063.78.665 1.88 1.867l4.436 4.507c1.832 1.64 3.7 2.863 5.136 3.584l2.37 1.14m54.12 12.843c.001.024-.255.07-.744.14l-2.144.264-7.912.727c-6.7.533-15.94 1.056-26.17 1.428-10.23.357-19.5.496-26.207.44a252.1 252.1 0 0 1-7.943-.16l-2.157-.1c-.495-.033-.753-.06-.752-.085s.26-.043.753-.055l2.16-.02 7.937-.06 26.183-.644 26.16-1.224 7.92-.507 2.156-.133c.493-.023.755-.024.757 0m-10.528 15.8c.005.048-.776.168-2.2.345l-6.008.625c-5.08.468-12.1.952-19.885 1.268s-14.828.397-19.928.34l-6.037-.14c-1.425-.063-2.212-.12-2.2-.168s.8-.08 2.215-.103l6.032-.08 19.9-.543 19.876-1.064 6.02-.405c1.42-.095 2.2-.124 2.216-.076m-23.9 19.502c.008.093-1.68.34-4.42.623s-6.536.587-10.733.796-8.005.283-10.76.275-4.46-.088-4.46-.18c-.001-.1 1.7-.193 4.45-.3l10.736-.476 10.728-.592 4.457-.133m-30.553-46.28c-.004.197-4.095.243-9.127.453l-9.137.297c-.02-.184 4.045-.788 9.108-1 5.06-.212 9.163.055 9.156.24m56.252-.72c-.001.2-5.307.327-11.85.3s-11.847-.2-11.847-.392 5.305-.327 11.85-.3 11.847.2 11.847.392m2.046 81.134c.02.043-.413.288-1.215.697l-3.47 1.58c-2.965 1.247-7.18 2.72-11.976 3.83-4.797 1.1-9.233 1.623-12.447 1.8-1.607.092-2.9.12-3.8.1s-1.395-.048-1.396-.096c-.001-.1 1.983-.188 5.17-.5a96.88 96.88 0 0 0 12.328-1.988 96.73 96.73 0 0 0 11.952-3.609c3-1.12 4.817-1.92 4.864-1.82M1041.778-19.75c0 30.408 25.842 55.06 57.72 55.06s57.72-24.652 57.72-55.06-25.843-55.063-57.72-55.063-57.72 24.652-57.72 55.063" class="E"/><path d="M1087.738-152.507c-9.157.477-12.752 10.023-13.847 12.153s-1.266 4.6-1.467 6.985-.484 4.867-1.757 6.896c-2.016 3.217-6.25 4.88-7.404 8.496-1.306 4.1 2.044 8.464 1.152 12.663-.48 2.253-2.125 4.108-2.706 6.337-.607 2.328.026 4.844 1.236 6.923 3.007 5.165 9.242 7.76 15.216 7.973s11.817-1.573 17.527-3.34m32.344-53.22c-.896 1.937-.05 4.292 1.355 5.9s3.295 2.7 4.957 4.04 3.2 3.107 3.384 5.233c.177 1.952-.804 3.9-.537 5.832.684 4.992 8.644 6.5 9.068 11.5.283 3.343-3.15 6.415-2.2 9.63.365 1.233 1.32 2.188 1.983 3.3 2.26 3.75.727 8.925-2.545 11.833s-7.824 3.933-12.197 4.13c-3.68.165-7.857-.437-10.024-3.415-1.98-2.724-1.575-6.44-1.18-9.785 1.848-15.625 1.535-31.415 1.217-47.145" class="B"/><path d="M1090.143-68.334l-.007-16.853s-10.554-1.877-12.585-15.7c-1.938-13.183 1.348-41.535 1.348-41.535 15.29-6.03 32.507-3.697 43.22 8.61l-1.665 66.66c-.193 7.74-7 13.737-15.286 13.465h-.001c-8.367-.273-15.1-6.83-15.023-14.65" class="H"/><path d="M1081.772-120.65c-.044.933.7 1.74 1.685 1.805s1.8-.64 1.843-1.575-.7-1.74-1.683-1.805-1.8.64-1.845 1.575m-2.845-1.37c.216.235 1.568-.743 3.472-.716 3.583.52 3.517 1.067 3.497.765.103-.103-.116-.52-.72-.97-.594-.448-1.6-.9-2.796-.897s-2.2.417-2.768.857c-.6.443-.794.857-.686.96m22.334 1.933c-.044.935.7 1.74 1.685 1.805s1.798-.64 1.842-1.573-.7-1.744-1.683-1.807-1.8.64-1.844 1.575m-2.475-1.272c.217.233 1.57-.744 3.473-.716 1.902-.001 3.287.996 3.497.764.102-.1-.114-.52-.72-.97-.593-.448-1.6-.888-2.795-.897s-2.2.417-2.768.857c-.6.443-.794.857-.688.963m-7.072 13.657c.01-.108-1.17-.327-3.086-.595-.485-.056-.945-.157-1.023-.5-.1-.352.1-.873.34-1.437l1.48-3.685c2.057-5.248 3.553-9.565 3.34-9.645s-2.052 4.107-4.1 9.355l-1.42 3.708c-.2.55-.513 1.173-.274 1.905.127.364.48.632.8.72.3.1.584.107.825.124 1.928.127 3.125.15 3.134.04" class="B"/><path d="M1090.136-85.187s9.275.707 18.534-4.715c0 0-4.592 9.427-18.385 7.976l-.148-3.26m2.327-17.918c.695-.897 1.9-1.38 3.1-1.24.825.1 1.655.507 2.15 1.185s.6 1.636.125 2.272c-.522.716-1.598.87-2.504.6s-1.68-.876-2.417-1.48c-.203-.168-.4-.343-.537-.57s-.15-.523.01-.7" class="D"/><g class="B"><path d="M1097.3-106.32c-.3-.02-.338 2.045-2.123 3.492s-3.984 1.193-4.004 1.48c-.03.13.487.408 1.416.444a5.14 5.14 0 0 0 3.34-1.12c1.1-.888 1.567-2.083 1.648-2.93.1-.86-.137-1.377-.278-1.367m18.826-37.337c-5.048 7.2-18.413 14.604-27.984 16.32 1.117-1.47 6.996-5.095 8.114-6.567-4.34 3.24-10.547 7.575-16.302 7.867-.68.035-1.418.033-1.98-.308-.763-.464-.918-1.368-1.007-2.168-.37-3.372-.138-9.155.4-12.503s2.074-6.676 4.98-8.92c3.688-2.848 8.965-3.552 13.937-3.67 4.17-.1 8.47.145 12.28 1.65s7.072 4.48 7.63 8.055"/><path d="M1130.6-111.403l1.377-9.223c.408-7.12-1.648-33.4-26.198-31.284l-1 7.477s-3.794 25.592 12.085 25.78c0 0 .877 7.625 8.068 15.043 0 0 4.165-.127 5.657-7.793"/></g><path d="M1116.874-118.652c1.48-.268 3.04-.21 4.44.336s2.625 1.607 3.216 2.988.515 3-.013 4.41-1.47 2.635-2.556 3.68c-.78.752-1.663 1.436-2.7 1.748s-2.25.195-3.068-.513" class="H"/><path d="M1117.586-109.698c-.17.053.463.953 1.815.605.652-.164 1.292-.728 1.684-1.436.395-.72.655-1.512.763-2.44.104-.92-.095-1.9-.593-2.605-.476-.716-1.26-1.145-1.925-1.167-1.388-.048-1.828.91-1.67.94.11.113.653-.376 1.56-.147.868.17 1.71 1.38 1.504 2.868-.183 1.515-.78 2.897-1.593 3.235-.847.42-1.448.027-1.543.148" class="D"/><path d="M1119.554-146.355a8.47 8.47 0 0 0 6.272.824c2.1-.55 3.948-1.945 5.056-3.8.716-1.2 1.127-2.653.776-4.004-.48-1.848-2.276-3.095-4.124-3.575-2.68-.697-5.715-.03-7.74 1.86s-2.897 4.977-2 7.596 3.603 4.552 6.368 4.393m-2.37 36.505c-1.365.985-2.748 1.987-3.816 3.3s-1.8 2.967-1.647 4.643c.087.94.445 1.867.3 2.8-.187 1.283-1.24 2.233-1.935 3.327-1.796 2.83-1.024 6.8 1.247 9.265s5.72 3.58 9.07 3.688c1.943.064 3.983-.2 5.576-1.324 2.295-1.607 3.18-4.62 3.237-7.42" class="B"/><path d="M1123.458-140.848c.072.043-.415 1.045-1.447 2.517s-2.644 3.38-4.728 5.173-4.22 3.104-5.827 3.9-2.673 1.128-2.705 1.05c-.1-.2 4-1.932 8.08-5.475 4.115-3.503 6.443-7.295 6.627-7.165m2.547-.136c.076.01.027 1.315-.452 3.365-.473 2.047-1.46 4.82-3.12 7.585-1.667 2.76-3.656 4.932-5.243 6.3s-2.717 2.037-2.76 1.975c-.164-.172 4.17-3.184 7.407-8.643 3.307-5.417 3.937-10.66 4.167-10.593m-53.297 11.113c.205-.013.468 2.296 1.265 5.023l1.607 4.925c-.152.095-1.47-1.912-2.274-4.732-.82-2.815-.776-5.215-.597-5.216m58.805 47.172c.036-.085.62.62 2.03.652.684.007 1.548-.192 2.35-.74.8-.54 1.456-1.5 1.78-2.693.323-1.192.33-2.58.025-4.02-.287-1.448-.848-2.944-1.343-4.576-.48-1.624-.903-3.452-.593-5.373.308-1.955 1.573-3.54 2.192-5.293.63-1.75.376-3.7-.395-5.26-.788-1.6-2.116-2.747-3.655-3.34l-2.288-1c-.73-.392-1.4-.937-1.825-1.636-.855-1.405-.82-2.93-.824-4.193.024-1.292.093-2.424-.137-3.392-.208-.967-.57-1.76-1-2.296-.896-1.1-1.844-1.02-1.8-1.1 0-.013.205-.045.583.044.375.08.924.337 1.423.892s.92 1.376 1.173 2.384c.28 1.015.24 2.22.25 3.477.027 1.25.056 2.695.82 3.885.747 1.224 2.3 1.732 3.876 2.356a7.44 7.44 0 0 1 4.015 3.627c.852 1.707 1.14 3.84.443 5.793-.695 1.913-1.912 3.436-2.176 5.18-.293 1.74.077 3.483.535 5.08l1.295 4.645c.292 1.507.26 2.992-.12 4.264s-1.124 2.313-2.035 2.88c-.903.57-1.84.737-2.575.688a3.17 3.17 0 0 1-1.596-.52c-.32-.22-.424-.4-.424-.4m-9.63-.94c.063-.04.175.427.82.72.58.28 1.88.3 2.588-.7.72-1.008.6-2.704-.216-4.173-.76-1.508-2.272-2.983-2.657-5.184-.204-1.064.05-2.276.74-3.076.652-.805 1.42-1.34 1.92-2 1.005-1.328 1.1-2.993.928-4.256-.17-1.295-.54-2.317-.764-3.027-.233-.708-.353-1.108-.308-1.127s.247.345.56 1.03c.3.685.752 1.693 1 3.05.228 1.327.227 3.14-.904 4.716-.568.764-1.343 1.327-1.893 2.032-.57.687-.757 1.6-.592 2.544.313 1.916 1.73 3.37 2.54 5.003.864 1.607.977 3.563.045 4.757-.45.613-1.135.867-1.692.925-.57.056-1.068-.065-1.415-.273-.715-.436-.724-.983-.7-.96m-52.264-3.485c-.034.03-.43-.347-1.086-1.084-.637-.745-1.608-1.837-2.326-3.505-.355-.832-.587-1.828-.56-2.9.025-1.07.342-2.275 1.175-3.23.826-.96 2.025-1.453 2.748-2.35.746-.888.84-2.193.552-3.432-.287-1.263-.87-2.393-1.463-3.523-.574-1.133-1.103-2.287-1.296-3.5-.213-1.204.053-2.47.686-3.367.615-.9 1.386-1.53 2.032-2.117 1.345-1.107 2.107-2.3 2.276-3.248.187-.94-.134-1.45-.057-1.47.016-.01.105.1.202.35s.185.65.122 1.16c-.1 1.03-.878 2.395-2.2 3.568-.63.6-1.355 1.244-1.88 2.07-.54.815-.74 1.864-.54 2.95.2 1.088.695 2.18 1.27 3.292.588 1.1 1.227 2.317 1.535 3.68.32 1.336.227 2.924-.7 4.013-.907 1.067-2.1 1.528-2.797 2.347-.72.8-1.034 1.85-1.08 2.83s.135 1.912.44 2.705c.62 1.6 1.5 2.728 2.08 3.517l.877 1.253" class="G"/><path d="M1125.226-144.612c-.188.095-1.116-1.947-3.25-3.532-2.107-1.624-4.324-1.96-4.284-2.167-.027-.177 2.416-.137 4.703 1.613 2.307 1.724 3.01 4.063 2.832 4.085" class="F"/><path d="M1127.152-157.38c.07-.044.516.477.876 1.513.363 1.02.57 2.592.12 4.23s-1.44 2.88-2.273 3.57c-.84.704-1.492.92-1.53.85-.055-.093.49-.46 1.192-1.205a8.25 8.25 0 0 0 1.941-3.399c.41-1.485.3-2.92.08-3.913-.22-1-.5-1.593-.404-1.645" class="G"/><path d="M1059.445 6.642h-.001l1.03-7.428-1.03 7.428" fill="#8f9192"/><path d="M1039.846-22.825l6.39-16.383 22.897 14.387-20.403 31.463s-8.3-10.78-8.883-29.467" class="D"/><path d="M1065.685-68.088c10.653-5.565 24.45-7.168 24.45-7.168 4.005 8.015 16.626 9.032 24.267 3.563l6.444-4.357s1-.04 2.7.11c15.073 1.333 27.41 12.59 30.483 27.408 1.12 5.393 1.943 11.583 1.612 17.323-.837 14.565-15.923 15.883-15.923 15.883l-1.796 26.027c-.757 8.69-5.265 15.18-13.192 18.817-5.9 2.707-9.156 3.96-16.818 5.183-19.318 3.09-37.875-4.243-50.1-17.35 2.288-13.876 4.475-31.84 4.32-32.643-.033-.17.025-.265.025-.265l-14.95-13.272-8.473-7.116s18.596-27.6 26.963-32.143" class="F"/><path d="M1084.2-59.1c-.057.137-1.276-1.024-3.696-1.023-1.17.003-2.622.343-3.813 1.323-.593.476-1.098 1.15-1.697 1.823-.585.657-1.344 1.408-2.42 1.605s-2.07-.272-2.816-.753l-2.1-1.417c-1.318-.808-2.82-.732-3.9-.34a5.18 5.18 0 0 0-2.273 1.568c-.42.52-.572.872-.63.848-.03-.01.035-.404.4-1.007.378-.592 1.12-1.377 2.317-1.87 1.157-.5 2.883-.64 4.4.244.744.408 1.42.947 2.146 1.397.717.453 1.523.803 2.332.647.808-.14 1.464-.74 2.038-1.377.582-.635 1.115-1.333 1.802-1.867 1.364-1.07 2.963-1.373 4.22-1.315 1.277.06 2.26.45 2.856.816.602.37.854.675.832.7m15.194 19.9c-.097.112-.88-1.377-3.175-2.15-1.1-.37-2.593-.512-4.034.035-.715.263-1.4.74-2.2 1.187-.766.436-1.724.903-2.806.747s-1.875-.92-2.428-1.615l-1.537-2.013c-1-1.185-2.436-1.593-3.597-1.572a5.15 5.15 0 0 0-2.655.76c-.563.36-.82.643-.867.6-.027-.017.16-.37.7-.823.546-.44 1.5-.947 2.792-1.03 1.254-.096 2.937.312 4.092 1.636.575.625 1.043 1.35 1.587 2 .535.66 1.187 1.248 2.003 1.36.8.124 1.624-.233 2.37-.655.755-.416 1.483-.907 2.305-1.192 1.634-.58 3.246-.355 4.42.103 1.2.464 1.997 1.148 2.446 1.685.45.544.594.9.565.927m33.743-29.147c-.027.147-1.464-.73-3.83-.217-1.143.252-2.488.9-3.445 2.1-.48.6-.83 1.356-1.272 2.14-.435.767-1.017 1.66-2.025 2.08s-2.083.172-2.912-.14l-2.352-.94c-1.46-.5-2.9-.117-3.896.495-1.005.62-1.585 1.427-1.9 2.015-.3.596-.375.973-.436.96-.032-.003-.05-.4.2-1.07.244-.657.803-1.585 1.87-2.316 1.027-.725 2.68-1.24 4.352-.695.813.24 1.587.624 2.392.912.8.3 1.66.46 2.417.137.76-.308 1.273-1.033 1.7-1.777.435-.744.808-1.54 1.367-2.205 1.107-1.333 2.604-1.97 3.845-2.18 1.26-.212 2.304-.037 2.965.193s.977.476.96.505m-15.57 21.88c-.097.1-.667-1.065-2.393-1.716-.836-.315-1.96-.465-3.07-.096-.547.175-1.095.517-1.717.837-.607.312-1.38.65-2.238.487s-1.46-.8-1.863-1.36l-1.108-1.605c-.704-.932-1.778-1.295-2.663-1.327-1.846-.056-2.7 1-2.76.87-.028-.023.122-.296.56-.635.435-.33 1.195-.7 2.205-.727.98-.04 2.3.337 3.154 1.413.427.507.765 1.083 1.16 1.604.388.52.855.98 1.45 1.085 1.227.216 2.352-.887 3.63-1.253 1.302-.4 2.55-.152 3.446.252 1.852.852 2.28 2.184 2.208 2.17m-34.342 18.428c-.097.1-.667-1.064-2.394-1.716-.836-.312-1.96-.465-3.068-.095-.547.175-1.095.517-1.717.837-.606.3-1.38.65-2.238.487s-1.46-.8-1.862-1.36l-1.1-1.604c-.704-.933-1.778-1.296-2.66-1.328-1.847-.056-2.7 1-2.762.87-.028-.023.122-.295.56-.635.435-.33 1.195-.703 2.206-.727.98-.04 2.3.336 3.153 1.412.427.507.765 1.084 1.16 1.605.388.52.855.977 1.45 1.085 1.227.215 2.35-.888 3.63-1.253 1.302-.4 2.55-.153 3.445.25 1.853.855 2.28 2.187 2.2 2.17m32.1.418c-.063.117-.976-.8-2.82-.85-.892-.027-2.005.193-2.933.904-.46.34-.87.843-1.354 1.347-.474.5-1.094 1.06-1.96 1.185s-1.64-.287-2.203-.685l-1.568-1.16c-.968-.655-2.1-.65-2.948-.395-1.765.545-2.234 1.812-2.33 1.717-.034-.01.02-.32.324-.783.305-.452.904-1.05 1.852-1.4.916-.353 2.276-.423 3.44.317.57.34 1.075.776 1.616 1.14.536.37 1.125.65 1.722.56 1.23-.193 1.938-1.6 3.03-2.36 1.106-.8 2.364-.97 3.342-.877 2.03.208 2.864 1.33 2.792 1.34M1104.733-13c-.063.12-.976-.8-2.82-.848-.892-.027-2.005.193-2.933.9-.46.344-.87.845-1.354 1.35-.474.5-1.094 1.06-1.96 1.184s-1.64-.285-2.202-.684l-1.568-1.16c-.968-.656-2.102-.65-2.95-.395-1.765.545-2.234 1.8-2.33 1.717-.034-.012.02-.32.324-.783.306-.453.905-1.05 1.85-1.4.916-.353 2.276-.423 3.442.317.568.34 1.074.776 1.615 1.143s1.126.648 1.723.56c1.23-.195 1.936-1.6 3.03-2.36 1.105-.792 2.363-.97 3.34-.877 2.03.208 2.864 1.33 2.792 1.34m-22.392 36.342c-.096.093-.682-1.055-2.418-1.68-.84-.303-1.966-.438-3.07-.052-.545.183-1.088.532-1.705.86-.603.32-1.37.67-2.23.52s-1.47-.78-1.882-1.333l-1.13-1.6c-.717-.924-1.796-1.27-2.68-1.3-1.848-.03-2.686 1.03-2.75.9-.028-.023.118-.297.552-.644.43-.336 1.185-.717 2.195-.757.98-.052 2.295.304 3.172 1.368.435.5.78 1.072 1.18 1.588s.87.965 1.465 1.064c1.23.198 2.34-.92 3.613-1.304 1.296-.4 2.548-.2 3.45.203 1.864.827 2.3 2.152 2.24 2.14m26.2 7.73c-.065.116-.964-.806-2.808-.888-.892-.04-2.007.167-2.946.86-.466.337-.88.832-1.372 1.33-.48.483-1.1 1.045-1.977 1.157s-1.636-.308-2.192-.715l-1.553-1.183c-.96-.668-2.092-.677-2.943-.435-1.772.52-2.258 1.78-2.355 1.685-.033-.013.025-.32.335-.777.3-.45.92-1.037 1.87-1.376.92-.34 2.28-.4 3.436.364.563.35 1.063.792 1.6 1.165.53.375 1.116.664 1.715.583 1.232-.178 1.96-1.574 3.063-2.32 1.116-.775 2.377-.937 3.353-.83 2.026.236 2.845 1.37 2.773 1.38" class="I"/><path d="M1022.196-79.178c.8.955 30.124 40.153 30.124 40.153l-4.127 2.337-30.083-38.7 4.085-3.79" class="B"/><path d="M1136.617-51.2s-27.495 47.416-29.354 48.29c-3.66 1.717-45.85-34.743-49.874-38.23l-3.946-5.413s-3.328-15.232-6.88-14.063 1.946 7.74-.367 13.528-12.908-8.016-13.333-9.256l-2.732-3.57s-2.865 8.123-2.67 11.515c.622 10.868 10.904 23.792 10.904 23.792s41.78 52.352 73.406 54.127c9.11.512 26.51-25.713 37.333-45.095 6.535-11.705 3.5-23.595-7.33-31.492l-5.155-4.132" class="H"/><path d="M1032.65-46.477c-.092.06-1.25-1.603-2.35-3.837-1.108-2.232-1.728-4.157-1.625-4.196.112-.043.9 1.8 1.998 4.01l1.977 4.023" class="D"/><path d="M1135.325-64.402c-1.087.653-26.655 48.12-26.655 48.12l32.91 25.78s8.56-21.09 13.077-38.237c1.227-4.653.595-17.09-1.136-21.887-2.46-6.817-6.165-5.12-11.72-9.113l-6.48-4.66" class="F"/><path d="M1139.884 8.17c-.032 0-.25-.147-.637-.428L1138.233 7l.01-.11 1.645 1.29" fill="#353638"/><path d="M1138.233 7l-.77-.57-1.25-.956.076-.112 1.953 1.53-.01.11m-24.787-19.137l-5.214-4.05 6.672-11.64-6.234 11.552 4.94 3.87-.164.265m1.567-15.865l.108-.2-.108.2" fill="#440d17"/><path d="M1114.914-27.83a1.22 1.22 0 0 1 .093-.187c-.028.065-.06.125-.093.187" fill="#3c3e40"/><path d="M1136.213 5.463l-5.332-4.075-17.435-13.536.164-.265 22.68 17.764-.076.112" fill="#432923"/><path d="M1146.136-64.4l-.04-.048c.032.027.045.043.043.047" fill="#0b1214"/><g fill="#440d17"><path d="M1137.205-63.048l-.34-.245.913-.725c1.536-1.123 3.152-1.748 4.516-1.75l.17-.003c1.28 0 2.228.416 2.8.756.317.156.516.343.667.44l.165.128.04.048c-.06.001-.36-.203-.937-.492a5.53 5.53 0 0 0-2.543-.619l-.35.01c-1.297.043-2.824.673-4.295 1.793l-.805.66"/><path d="M1139.888 8.17l-31.218-24.453 6.45-11.93 9.705-16.85 4.452-7.687 4.05-6.63c1.13-1.537 2.316-2.867 3.537-3.913l.34.245c-1.196 1.05-2.364 2.395-3.48 3.956-1.39 1.896-2.54 4.207-3.943 6.62l-4.396 7.72-10.115 17.67-6.166 10.716 22.038 17.416 6.46 5.188 1.713 1.412.568.52"/></g><path d="M1136.3-19.894c-.097.092-.667-1.064-2.395-1.716-.835-.312-1.96-.465-3.067-.095-.548.176-1.096.517-1.717.837-.607.3-1.38.65-2.24.487s-1.46-.803-1.863-1.36l-1.1-1.605c-.703-.932-1.777-1.293-2.66-1.327-1.847-.056-2.7 1-2.76.872-.028-.024.12-.296.56-.636.436-.33 1.195-.7 2.205-.727.98-.04 2.3.336 3.153 1.413.427.507.765 1.083 1.16 1.604.388.52.855.977 1.45 1.085 1.225.215 2.35-.888 3.63-1.253 1.3-.4 2.55-.152 3.445.25 1.852.855 2.28 2.187 2.208 2.17m15.043-6.138c-.12.06-.355-1.205-1.843-2.3-.72-.527-1.76-.976-2.928-.92-.575.02-1.195.203-1.88.343-.668.136-1.503.255-2.287-.135s-1.2-1.165-1.425-1.813l-.635-1.844c-.427-1.088-1.363-1.727-2.205-1.996-1.764-.55-2.868.227-2.895.093-.02-.03.197-.252.7-.46.508-.2 1.34-.352 2.32-.104.955.228 2.115.94 2.655 2.2.275.603.445 1.25.684 1.857.233.608.56 1.173 1.103 1.436 1.123.54 2.504-.22 3.835-.227 1.36-.024 2.496.54 3.25 1.17 1.553 1.32 1.605 2.72 1.54 2.687m.774-19.618c-.12.06-.356-1.204-1.843-2.3-.72-.527-1.76-.976-2.928-.92-.575.02-1.195.203-1.88.344-.668.135-1.504.253-2.287-.136s-1.2-1.165-1.427-1.812l-.635-1.844c-.427-1.1-1.363-1.728-2.205-1.997-1.763-.55-2.867.227-2.895.093-.02-.028.197-.25.712-.46.508-.2 1.34-.35 2.32-.104.955.228 2.115.94 2.656 2.2.275.604.444 1.25.683 1.86.233.607.56 1.172 1.103 1.436 1.123.54 2.504-.22 3.835-.228 1.36-.024 2.497.543 3.25 1.172 1.553 1.32 1.605 2.72 1.54 2.685m-7.282 45.108c-.12.063-.355-1.204-1.843-2.297-.72-.528-1.76-.977-2.928-.92-.575.02-1.195.203-1.88.344-.667.135-1.503.253-2.287-.136s-1.188-1.165-1.425-1.8l-.635-1.845c-.427-1.088-1.363-1.727-2.205-1.997-1.764-.55-2.868.227-2.895.093-.02-.028.197-.25.7-.46.508-.2 1.34-.352 2.32-.105.955.228 2.115.94 2.655 2.213.275.603.445 1.248.684 1.856.232.607.56 1.172 1.103 1.436 1.123.54 2.503-.22 3.835-.228 1.36-.024 2.497.543 3.25 1.172 1.555 1.32 1.605 2.72 1.54 2.685" class="I"/><g class="E"><path d="M1337.954-218.072c-2.67-9.813-9.978-32.898-14.332-43.756l-3.254-8.027c-1.072-2.633-2.136-5.24-3.333-7.728-2.372-4.986-5.027-9.596-7.683-13.893s-5.33-8.284-7.858-11.992c-2.536-3.702-4.963-7.108-7.307-10.117-4.67-6.037-8.994-10.447-12.084-13.355-1.544-1.46-2.776-2.553-3.62-3.284l-.964-.825c-.22-.184-.34-.268-.34-.268.1.106.2.208.308.306l.935.86 3.558 3.348a119.64 119.64 0 0 1 11.948 13.43c2.32 3.015 4.728 6.426 7.247 10.135 2.51 3.714 5.17 7.702 7.8 12 2.64 4.294 5.28 8.896 7.636 13.863 1.188 2.477 2.242 5.067 3.316 7.707l3.25 8.024c4.35 10.85 11.663 33.912 14.35 43.693"/><path d="M1316.918-277.633c.032.007.14-.48.31-1.37l.63-3.774c.49-3.196 1.02-7.63 1.596-12.522s1.182-9.3 1.736-12.486l.684-3.758c.17-.886.25-1.38.22-1.388s-.17.47-.398 1.346-.517 2.15-.833 3.736c-.642 3.17-1.302 7.592-1.878 12.5l-1.456 12.533-.48 3.793c-.112.895-.16 1.394-.128 1.4"/><path d="M1276.195-285.976c-.001.016.144.042.42.077l1.208.125 4.43.492c3.735.455 8.875 1.276 14.51 2.44 5.63 1.173 10.676 2.46 14.3 3.505l5.446 1.622c.268.075.41.107.416.1s-.128-.078-.386-.183l-1.137-.438a79.62 79.62 0 0 0-4.245-1.423c-3.607-1.13-8.657-2.475-14.3-3.65-5.64-1.165-10.804-1.935-14.56-2.297a70.14 70.14 0 0 0-4.454-.339l-1.22-.046c-.277-.002-.425.004-.425.022m57.82 54.553c.015.007.1-.167.277-.503l.713-1.49c.613-1.295 1.46-3.2 2.473-5.545 2.027-4.708 4.64-11.3 7.44-18.608l7.3-18.654 2.334-5.603.63-1.524c.14-.352.206-.54.192-.547s-.1.167-.277.505l-.712 1.488c-.614 1.294-1.458 3.2-2.472 5.545-2.033 4.708-4.647 11.3-7.44 18.612l-7.306 18.65-2.964 7.128c-.14.35-.206.538-.19.545M1280-249.96c-.004.015.18.092.533.223l1.57.547 5.79 1.978 19.02 6.747 19.08 6.616 5.837 1.83 1.598.462.567.13s-.18-.092-.533-.223l-1.57-.547-5.787-1.977-19.027-6.748-19.075-6.614-5.838-1.83-1.598-.462-.567-.13"/></g><g class="B"><path d="M1431.442-293.73c-.804 2.13.576 4.46 2.123 6.104s3.423 3.21 3.9 5.443c.408 1.872-.268 3.822-.104 5.732.17 1.956 1.195 3.7 1.78 5.58 1.056 3.385.632 7.082-.31 10.502-.773 2.805-1.92 5.563-3.812 7.738s-4.613 3.72-7.455 3.665c-.804-.015-1.675-.193-2.203-.818-.457-.54-.558-1.295-.637-2.005a200.52 200.52 0 0 1-.005-44.193m5.21 49.58c6.186-.277 11.903 5.798 11.412 12.127 6.264 1.564 10.69 8.635 9.465 15.126-.405 2.143-1.334 4.183-1.462 6.36-.14 2.376.683 4.686 1.13 7.022.81 4.223.373 8.686-1.235 12.66-.977 2.414-2.795 4.906-5.343 4.98-1.73.05-3.33-1.098-4.292-2.573s-1.388-3.243-1.726-4.978c-1.103-5.698-1.44-11.555-2.96-17.15s-4.48-11.108-9.42-13.96c-2.727-1.575-5.998-2.32-8.163-4.635-2.268-2.427-2.79-6.275-1.604-9.408s3.892-5.525 6.973-6.673l7.227 1.107"/><path d="M1387.113-288.506c-.076-2.71 2.368-4.806 4.83-5.798s5.195-1.367 7.4-2.882c1.942-1.34 3.248-3.432 4.892-5.142 4.034-4.193 10.332-5.932 15.874-4.38s10.106 6.33 11.504 12.04c.945 3.862.3 8.426-2.667 10.99-3.444 2.978-8.55 2.317-12.964 1.39s-9.41-1.84-13.093.818c-2.223 1.603-3.496 4.2-4.854 6.623s-3.063 4.876-5.633 5.783-6.057-.66-6.157-3.443"/></g><path d="M1397.538-287.95c-2.283.253-4 2.255-3.948 4.6l2.64 61.264c.1 7.236 10.425 11.3 17.978 11.12 7.63-.182 7.875-4.02 7.97-10.903l.15-15.752s9.636-1.662 11.607-14.565c.98-6.416.642-16.932.096-25.528-.492-7.737-5.512-17.22-13.028-16.387l-23.465 6.14" class="H"/><path d="M1431.86-269.603c.032.873-.663 1.62-1.547 1.672s-1.634-.615-1.666-1.488.663-1.622 1.55-1.674 1.636.615 1.668 1.488m-.043-2.626c-.2.216-1.424-.71-3.16-.7-1.734-.016-3.006.902-3.2.684-.092-.096.11-.486.664-.9.546-.414 1.476-.817 2.557-.82s1.99.4 2.516.82c.533.418.716.81.618.905m-16.634 2.623c.032.874-.663 1.62-1.547 1.672s-1.634-.614-1.667-1.488.664-1.622 1.552-1.673 1.634.615 1.666 1.487m-.426-2.25c-.2.216-1.426-.71-3.16-.7-1.734-.018-3.006.9-3.2.683-.092-.096.11-.485.664-.9.546-.414 1.475-.817 2.557-.82s1.99.41 2.516.82c.533.418.714.808.618.905m6.328 13.183c-.01-.102 1.07-.296 2.818-.528.443-.048.862-.14.936-.45.104-.328-.082-.818-.298-1.347l-1.32-3.457-2.964-9.047c.195-.075 1.835 3.857 3.666 8.78l1.264 3.478c.17.516.458 1.102.234 1.784-.12.34-.442.586-.727.665-.284.1-.534.096-.747.1-1.76.1-2.85.11-2.858.01" class="B"/><path d="M1422.328-237.61s-8.46.58-16.854-4.57c0 0 4.105 8.85 16.69 7.615l.163-3.046m-1.97-16.768c-.625-.845-1.72-1.313-2.805-1.184-.754.085-1.514.46-1.97 1.094s-.55 1.523-.133 2.122c.47.675 1.45.83 2.276.585s1.54-.804 2.217-1.367c.186-.155.377-.317.494-.528s.14-.488-.004-.656" class="D"/><g class="B"><path d="M1415.978-257.426c.283-.018.3 1.914 1.906 3.282s3.62 1.15 3.636 1.42c.027.122-.446.376-1.294.402-.832.03-2.046-.24-3.04-1.076-.986-.84-1.41-1.96-1.478-2.752-.075-.807.135-1.287.264-1.276m-.448-17.547c-.17.484-1.904.26-3.94.514-2.042.214-3.683.83-3.954.396-.12-.208.164-.663.827-1.133.657-.47 1.707-.916 2.934-1.06s2.347.057 3.085.365c.748.308 1.12.686 1.052.917"/><path d="M1431.168-277.375c-.304.405-1.502-.013-2.934-.028-1.438-.068-2.655.277-2.936-.145-.123-.205.068-.6.6-.994.523-.383 1.4-.696 2.388-.667s1.846.394 2.345.807c.51.414.676.83.542 1.028m-42.41 31.858c3.46.715 7.226-.376 9.8-2.844s3.92-6.236 3.476-9.826c-.39-3.168-2.057-6.39-.986-9.39 1.416-3.964 6.835-5.183 8.272-9.14.836-2.3.085-4.99 1.033-7.242.89-2.118 3.065-3.34 5.18-4.124s4.385-1.326 6.16-2.74 2.884-4.088 1.74-6.074c-9.394 1.156-18.62 3.455-27.484 6.848-2.053.786-4.214 1.73-5.422 3.6-1.284 1.98-1.223 4.538-1.12 6.912.527 11.58-1.192 22.43-.665 34.012"/></g><g class="G"><path d="M1385.757-249.15c-.002.005-.07-.016-.205-.07a2.84 2.84 0 0 1-.572-.286c-.478-.293-1.12-.9-1.568-1.902-.448-1-.713-2.376-.4-3.916s1.168-3.12 2.286-4.684c1.103-1.575 2.498-3.17 3.45-5.207.47-1 .818-2.138.832-3.323.023-1.187-.347-2.378-.74-3.588-.4-1.203-.786-2.514-.742-3.9a8.72 8.72 0 0 1 1.148-3.98c.698-1.225 1.698-2.317 2.94-3.063 1.235-.784 2.716-1.057 4.143-1.212 1.434-.166 2.863-.25 4.15-.744 1.297-.47 2.298-1.486 2.915-2.693.635-1.203.994-2.524 1.382-3.803.376-1.287.828-2.54 1.42-3.684 1.157-2.295 2.795-4.217 4.715-5.435s4.06-1.718 5.97-1.588c1.918.127 3.586.9 4.698 1.976 1.122 1.057 1.786 2.267 2.102 3.308.328 1.045.345 1.913.292 2.48s-.148.86-.148.86c-.024-.004.048-.298.073-.864s-.013-1.413-.354-2.43c-.33-1.012-1-2.182-2.104-3.197-1.095-1.02-2.712-1.76-4.577-1.866-1.856-.11-3.937.39-5.793 1.586s-3.448 3.076-4.575 5.33c-.574 1.125-1.01 2.347-1.383 3.628-.384 1.277-.74 2.618-1.4 3.875-.33.625-.745 1.223-1.27 1.722s-1.16.886-1.833 1.146c-1.36.52-2.816.602-4.238.767-1.422.155-2.824.417-3.998 1.16-1.183.708-2.143 1.75-2.814 2.925a8.37 8.37 0 0 0-1.107 3.805c-.045 1.314.315 2.567.713 3.78.388 1.21.77 2.445.74 3.702-.02 1.25-.395 2.42-.882 3.455-.992 2.084-2.41 3.677-3.517 5.23-1.122 1.54-1.983 3.078-2.294 4.57-.313 1.484-.078 2.84.34 3.812.418.985 1.022 1.6 1.478 1.898.46.317.75.39.738.42"/><path d="M1422.312-305.387c.01-.022.186.02.49.15s.724.365 1.19.737c.924.727 2.01 2.144 2.294 4.015a6.58 6.58 0 0 1-1.045 4.525 5.33 5.33 0 0 1-.928 1.061c-.253.213-.4.31-.424.3-.047-.053.536-.505 1.133-1.5.595-.97 1.15-2.57.9-4.32-.26-1.75-1.243-3.114-2.09-3.864-.853-.766-1.54-1.03-1.5-1.094m27.857 88.51c-.04-.016.22-.466.36-1.365.148-.886.078-2.256-.615-3.72-.674-1.463-2.088-2.86-3.97-3.793-.94-.47-1.982-.842-3.1-1.13l-3.467-.926c-1.17-.385-2.317-.913-3.175-1.78-.892-.84-1.316-2.024-1.498-3.098l-.493-3.03a6.06 6.06 0 0 0-1.144-2.322c-1.003-1.255-2.212-1.847-3.043-2.122-.85-.26-1.353-.26-1.35-.3.001-.013.125-.016.363-.008s.587.057 1.028.168c.863.24 2.134.807 3.204 2.092.583.7 1.006 1.525 1.24 2.413.256.952.333 1.995.53 3.045.2 1.046.585 2.118 1.415 2.897.8.8 1.89 1.31 3.037 1.685s2.32.626 3.44.928c1.124.295 2.19.683 3.15 1.176 1.92.972 3.386 2.452 4.054 4 .69 1.53.717 2.952.52 3.855-.068.35-.175.692-.32 1.017-.107.22-.17.328-.18.328"/></g><path d="M1395.47-239.714c-6.37-1.748-11.876-8.148-14.11-14.51s-2.235-13.318-1.662-20.055c.416-4.883 1.25-10.047 4.412-13.722 4.767-5.54 9.925-8.37 17.127-8.14" class="B"/><path d="M1432.664-225.492l-5.938-1.53c1.395-1.134 1.784-2.6 1.18-4.247-.7-1.938-2.532-3.218-4.538-3.45l-27.086-3.136a2.17 2.17 0 0 0-2.272 1.371c-1.203 3.128-1.244 5.706-.123 7.73l-.128-.001-5.217 1.063-8.824 80.036 57.948-2.777-5-75.06" class="C"/><path d="M1424.143-226.716c.003.026-.384.1-1.088.215l-2.996.372c-2.535.253-6.063.415-9.95.22-3.9-.2-7.384-.722-9.883-1.232l-2.945-.675-1.06-.323c.005-.025.395.04 1.092.18l2.96.556a83.02 83.02 0 0 0 9.855 1.116c3.868.194 7.38.075 9.91-.11l3-.252 1.105-.068" class="B"/><path d="M1397.948-213.993c-.085-.057.823-1.606 2.03-3.457l2.336-3.247c.085.06-.823 1.607-2.03 3.457l-2.336 3.247m18.68 1.356c-.08.066-1.227-1.27-2.574-2.98l-2.285-3.218c.08-.066 1.227 1.267 2.574 2.98l2.285 3.216m-8.677 10.172c-.1.018-.493-1.764-.875-3.98l-.51-4.048c.107-.018.493 1.764.875 3.982l.5 4.048m14.26.63c.072.075-1.402 1.682-3.3 3.588l-3.55 3.32c-.07-.075 1.4-1.682 3.3-3.59l3.55-3.32m-19.123 13.637c-.046.082-1.8-1.02-3.54-2.9-1.74-1.88-2.708-3.75-2.626-3.793.096-.063 1.187 1.688 2.895 3.534 1.696 1.856 3.337 3.076 3.27 3.17m6.142 10.53c.032.11-1.623.647-3.5 1.668-1.883 1.01-3.25 2.108-3.32 2.02-.064-.07 1.223-1.322 3.147-2.356 1.918-1.04 3.653-1.426 3.672-1.333m9.996.684c-.04.033-.476-.44-1.132-1.247l-2.44-3.256-2.214-3.424c-.53-.9-.825-1.476-.784-1.503s.416.497 1.003 1.357l2.295 3.35 2.344 3.312.926 1.413m1.004 8.98c.02.1-1.883.62-4.278 1.023s-4.363.543-4.374.442c-.01-.107 1.927-.41 4.313-.816l4.34-.648m-16.182-59.84c-.05-.042.293-.44.584-1.213.297-.763.484-1.918.307-3.172s-.603-2.336-.917-3.11l-.48-1.283c.043-.02.332.413.717 1.17.378.755.86 1.86 1.047 3.17.186 1.32-.056 2.55-.435 3.328-.373.79-.8 1.136-.824 1.106m10.824-5.995c.08-.054.744.95 1.067 2.39.333 1.437.172 2.64.077 2.628-.11-.004-.117-1.165-.437-2.54-.3-1.378-.804-2.423-.707-2.476" class="E"/><path d="M1494.65-171.3l10.892-36.926 2.508-5.893 5.597-14.683c.72-1.466.293-1.998-.183-2.098-.743-.157-1.757.73-2.407 1.978l-3.542 7.316s.012-.648-.22-2.192-1.898-2.88-4.014-3.42-2.81-.474-3.287.476c-.192.38-.16.743-.045 1.046.188.495.596.827 1.098.965 3.365.92 3.235 3.283 3.235 3.283l-.33.77s-1.2-2.306-3.153-2.066a2.56 2.56 0 0 0-.871.276c-.9-.253-2.037.058-2.933.812-.933.785-1.554 2.013-1.565 3.094-.005.516.188 1.055.67 1.08.254.013.532-.12.795-.246a2.94 2.94 0 0 1 .423-.17l-.657 2.215-2 7.16-15.536 35.117c-2.153 4.87-.447 9.594 3.786 10.49 4.605.973 10.146-2.983 11.738-8.38" class="H"/><g class="F"><path d="M1425.44-136.53l28.194.284-4.743-20.982 1.584 3.96c2.993 7.477 10.096 12.36 17.978 12.36h.001c8.916 0 15.078-6.803 18.85-15.088 8.82-19.37 17.32-50.562 17.32-50.562l-17.197-15.49-24.137 45.1s-3.376-10.526-5.985-19.915-2.592-14.327-6.6-19.01c-6.16-7.2-14.944-8.992-23.1-11.148l-.304 38.973-1.865 51.52"/><path d="M1393.19-165.56l51.346 10.257 2.503 20.228-78.73-.002c-9.132.125-16.4-7.822-15.673-17.156l3.3-40.585c.728-5.987 3.057-12.178 5.816-17.506 3.973-7.674 17.22-17.53 28.834-18.016l2.2 50.157.405 12.623"/></g><g fill="#9c2438"><path d="M1453.635-136.245l-6.748-.068-2.35-18.99-2.944-.59c-.61-.485-1.327-.813-2.087-.956l-13.24-2.5 1.04-28.71.304-38.973c8.156 2.155 16.94 3.947 23.1 11.148 4.007 4.684 3.992 9.624 6.6 19.01s5.985 19.915 5.985 19.915 11.695-20.963 24.137-45.1l17.197 15.49s-8.5 31.193-17.32 50.562c-3.773 8.284-9.936 15.088-18.85 15.088h-.001c-7.882 0-14.984-4.883-17.978-12.36l-1.584-3.96 4.743 20.982"/><path d="M1446.888-136.313l-.1-.002-3.422-16.675c-.236-1.152-.864-2.18-1.77-2.9l2.944.59 2.35 18.99"/></g><path d="M1426.253-158.955l-33.062-6.605 33.075 6.223-.013.382" fill="#858889"/><g fill="#9c2438"><path d="M1368.098-135.074c-8.618.001-15.514-7.187-15.51-15.892a16.87 16.87 0 0 1 .049-1.266l3.3-40.585c.728-5.987 3.057-12.178 5.816-17.506 3.973-7.674 17.22-17.53 28.834-18.016l2.2 50.157.405 12.623 48.4 9.67c.908.72 1.536 1.75 1.77 2.9l3.676 17.917-78.73-.002-.178.002h-.034"/><path d="M1441.594-155.89l-15.34-3.063.013-.383 13.24 2.5c.76.142 1.476.47 2.087.956"/></g><g class="B"><path d="M1383.415-167.024c-.013 0-.02-.166-.023-.48l.005-1.38.028-5.072c.005-4.283-.073-10.2-.397-16.725l-.59-9.192c-.208-2.824-.448-5.36-1.032-7.408-.56-2.052-1.463-3.548-2.264-4.402-.8-.862-1.383-1.177-1.355-1.218 0 0 .6.268 1.458 1.116.85.837 1.812 2.352 2.41 4.428.626 2.068.895 4.637 1.12 7.455.26 3.063.467 6.13.62 9.202.325 6.534.363 12.46.3 16.746l-.146 5.074-.075 1.378c-.02.315-.038.48-.05.48"/><path d="M1443.544-153.875c-.04.046-.514-.755-1.87-1.552-.674-.395-1.558-.77-2.623-1.075s-2.307-.55-3.68-.84l-21.46-4.352-21.558-3.816-6.548-1.078-1.778-.305-.617-.13s.218.007.627.056l1.79.235 6.566.957c5.54.842 13.182 2.097 21.585 3.71s15.972 3.25 21.445 4.463c1.367.305 2.612.565 3.683.9 1.072.328 1.963.73 2.638 1.15s1.133.852 1.408 1.17c.147.15.233.29.3.372s.093.134.088.138"/><path d="M1383.568-167.024c.016.068-.946.295-2.41.908-.734.3-1.58.725-2.486 1.255a21.79 21.79 0 0 0-2.77 1.999 21.92 21.92 0 0 0-2.397 2.454 20.59 20.59 0 0 0-1.635 2.293l-1.287 2.28c-.023-.01.057-.25.222-.676.158-.43.443-1.028.84-1.742a18.4 18.4 0 0 1 1.598-2.378c.735-.91 1.545-1.754 2.422-2.522a19.5 19.5 0 0 1 2.839-2.011c.93-.523 1.803-.93 2.56-1.203s1.378-.462 1.818-.55c.437-.094.68-.134.687-.108m66.31 12.603c-.012.002-.053-.17-.107-.5l-.233-1.448-.755-5.343c-.6-4.518-1.327-10.773-1.935-17.7s-.98-13.22-1.175-17.773l-.186-5.395-.023-1.468c-.001-.335.005-.512.018-.513s.032.175.057.5l.092 1.464.304 5.388 1.282 17.753a607.25 607.25 0 0 0 1.826 17.7l.638 5.357.164 1.458c.034.328.045.5.032.512m17.026-7.844c-.02.015-.16-.156-.412-.48s-.578-.82-.947-1.448c-.738-1.26-1.574-3.136-2.08-5.333-.5-2.2-.56-4.26-.444-5.727.056-.735.135-1.325.22-1.727.08-.403.137-.624.163-.618.064.01-.077.906-.123 2.36s.055 3.468.544 5.627c.496 2.155 1.276 4.01 1.947 5.288s1.183 2.02 1.13 2.06"/></g><path d="M1383.207-194.12c.001.013-.1.033-.266.058-.176.018-.435.072-.773.076-.674.044-1.66 0-2.85-.23-1.193-.222-2.572-.672-4.045-1.3l-4.677-2.266c-1.636-.83-3.233-1.54-4.733-2.033s-2.9-.77-4.087-.82c-2.4-.124-3.798.538-3.815.442-.005-.013.08-.053.245-.12.168-.058.408-.178.738-.255.648-.198 1.63-.358 2.842-.336 1.216.016 2.65.277 4.18.753 1.53.482 3.15 1.19 4.8 2.026l4.64 2.285c1.45.637 2.8 1.105 3.964 1.36 2.337.53 3.837.273 3.837.357m8.79-1.777c.017.1-1.857.517-4.185.924l-4.246.55c-.017-.103 1.856-.517 4.185-.923l4.246-.55m-9.1 15.658c.01.024-.36.186-1.035.457l-2.895 1.042c-2.464.822-5.93 1.79-9.827 2.492-1.832.33-3.675.6-5.525.78-1.707.184-3.262.273-4.564.127-1.305-.13-2.326-.504-2.966-.867-.32-.18-.557-.343-.704-.47s-.224-.193-.217-.204c.02-.03.34.227.986.547s1.644.64 2.923.733c1.277.1 2.808-.005 4.504-.208a86.56 86.56 0 0 0 5.498-.805 88.22 88.22 0 0 0 9.813-2.374l2.925-.926c.693-.228 1.073-.343 1.082-.317m8.912 3.838c.002.105-1.733.22-3.873.256s-3.878-.02-3.88-.124 1.732-.22 3.872-.256l3.88.124m-36.597 33.224c-.012-.003.015-.137.075-.387l.286-1.094.215-.8.327-.915c.25-.656.487-1.413.88-2.2l.58-1.25c.205-.433.47-.856.714-1.31.476-.917 1.108-1.817 1.748-2.782 1.354-1.874 3.014-3.807 4.987-5.6a35.56 35.56 0 0 1 6.091-4.291c1.02-.516 1.978-1.04 2.93-1.39.47-.186.917-.396 1.363-.545l1.287-.416c.813-.3 1.583-.427 2.24-.59.334-.074.642-.153.93-.205l.792-.1 1.096-.137c.25-.03.383-.036.384-.024s-.128.047-.375.1l-1.082.207-.782.143c-.284.06-.588.15-.917.234-.655.18-1.414.328-2.214.64l-1.268.435c-.44.153-.878.367-1.342.56-.938.366-1.88.888-2.88 1.408a36.4 36.4 0 0 0-6.01 4.268 37.05 37.05 0 0 0-4.954 5.51c-.64.95-1.276 1.834-1.76 2.735-.25.445-.516.86-.727 1.285l-.595 1.228c-.405.766-.66 1.52-.924 2.16-.126.33-.255.62-.352.9l-.246.774-.352 1.07c-.084.243-.134.37-.147.366m35.672-22.4c.076.063-1.558 1.092-2.92 3.763-.678 1.32-1.264 3.01-1.635 4.95s-.527 4.122-.674 6.413-.313 4.492-.728 6.456c-.408 1.97-1.047 3.672-1.78 4.993-.74 1.322-1.547 2.254-2.168 2.813-.314.278-.564.48-.75.602-.18.125-.276.187-.284.176-.074-.065 1.58-1.066 2.97-3.72.692-1.313 1.294-2.997 1.677-4.934.4-1.936.547-4.12.694-6.4s.306-4.5.708-6.457c.395-1.965 1.018-3.68 1.74-5.01s1.52-2.272 2.134-2.84c.31-.283.556-.492.738-.615.177-.13.274-.19.28-.18m12.135 30.627c-.107-.004.016-6.288.263-14.036l.634-14.025c.106.003-.016 6.287-.263 14.036l-.634 14.023m19.304-1.078c-.024.007-.136-.317-.316-.91-.094-.297-.2-.656-.29-1.094l-.3-1.477c-.2-1.095-.332-2.42-.378-3.894a30.38 30.38 0 0 1 .298-4.785c.26-1.685.662-3.258 1.114-4.658.48-1.392.99-2.615 1.494-3.6.234-.504.5-.93.714-1.312a10.58 10.58 0 0 1 .596-.955l.567-.766c.062.042-.704 1.172-1.644 3.158-.476.984-.958 2.2-1.408 3.6-.43 1.4-.815 2.943-1.07 4.606-.242 1.663-.327 3.264-.324 4.72.026 1.457.13 2.768.295 3.858l.64 3.52m-32.77-80.613c-.027.06-1.127-.445-2.972-1.056s-4.452-1.27-7.395-1.54a33.71 33.71 0 0 0-7.546.188c-1.92.27-3.094.57-3.105.505-.007-.026.28-.12.8-.27.525-.155 1.298-.33 2.26-.5 1.923-.343 4.638-.566 7.617-.3 2.978.273 5.61.98 7.446 1.665.92.34 1.65.652 2.134.9.492.243.757.387.747.41m56.184 30.664c-.003.054-1.01.022-2.638-.042l-6.355-.218-6.358-.107-2.637-.092c-.001-.026.25-.056.705-.087.643-.042 1.285-.07 1.93-.088 1.63-.055 3.883-.067 6.37-.005s4.737.197 6.36.33a51.41 51.41 0 0 1 1.922.186c.454.054.703.098.7.124m14.042-2.726c.022.064-.892.38-2.278 1.08a22.74 22.74 0 0 0-4.981 3.443c-1.498 1.377-2.81 2.95-3.906 4.68-.837 1.332-1.247 2.226-1.306 2.197-.023-.01.06-.242.233-.654.167-.414.455-.993.85-1.685.786-1.385 2.095-3.183 3.882-4.824 1.792-1.633 3.684-2.76 5.12-3.403.715-.328 1.3-.55 1.73-.673s.653-.188.662-.164m-6.92-23.373c.005.094-1.447-.232-3.615.52-1.08.353-2.304.952-3.646 1.663-1.343.702-2.827 1.532-4.508 2.08-2.88.947-5.94 1.152-8.913.595a16.33 16.33 0 0 1-2.628-.729l-.913-.413c.024-.073 1.337.507 3.584.877 2.232.368 5.452.413 8.754-.693 1.648-.537 3.113-1.34 4.47-2.028 1.354-.694 2.614-1.28 3.724-1.606 1.11-.342 2.056-.427 2.7-.397.322-.002.57.048.738.072s.254.05.252.062m-3.547 48.884c.01.024-.285.164-.828.396l-1.003.388-1.354.437c-1.01.304-2.24.57-3.62.773-1.5.2-3.013.28-4.525.245a29.12 29.12 0 0 1-4.504-.523c-1.366-.287-2.578-.628-3.57-.994-.5-.162-.938-.36-1.326-.52l-.978-.45-.803-.447c.03-.065 1.2.513 3.2 1.16.992.328 2.198.64 3.55.906 1.356.243 2.862.43 4.45.492a30.55 30.55 0 0 0 4.47-.219c1.365-.18 2.587-.417 3.597-.685l3.252-.96m16.34 21.582c-.01.01-.103-.07-.276-.232-.166-.167-.437-.392-.73-.735-.62-.657-1.43-1.692-2.25-3.096-1.662-2.786-3.077-7.214-3.168-12.213s.864-9.444 1.613-12.592c.3-1.245.626-2.484.975-3.717l.298-1c.072-.228.115-.345.128-.342s-.007.128-.056.36l-.23 1.02-.86 3.742c-.682 3.157-1.585 7.58-1.497 12.52s1.443 9.3 3.025 12.09c.78 1.4 1.55 2.45 2.13 3.13s.923 1.04.9 1.066m25.884-24.763c-.055.085-1.225-1.23-3.76-2.17-1.256-.473-2.808-.868-4.556-1.214-1.74-.36-3.686-.69-5.664-1.34-3.378-1.124-6.46-3.025-9.013-5.557-.97-.97-1.675-1.837-2.134-2.462-.232-.306-.4-.56-.503-.73s-.162-.263-.152-.27c.024-.017.286.318.768.907a26.85 26.85 0 0 0 2.196 2.352c1.953 1.86 5.04 4.115 8.947 5.392 1.943.637 3.875.975 5.62 1.357 1.747.365 3.315.793 4.58 1.305s2.213 1.114 2.803 1.602c.31.22.51.45.66.588.144.142.213.22.205.23m8.133-24.337c-.02.02-.288-.218-.76-.676l-.875-.808-1.193-1.026c-.894-.747-2.014-1.564-3.304-2.396-1.41-.882-2.876-1.665-4.4-2.342a35.34 35.34 0 0 0-4.685-1.641c-1.477-.383-2.827-.65-3.97-.796-.57-.096-1.09-.128-1.547-.177l-1.174-.092-1.002-.096c0-.026.357-.044 1.013-.05l1.183.028 1.564.122c1.158.113 2.527.355 4.024.722a33.2 33.2 0 0 1 4.747 1.63c1.532.684 3.01 1.485 4.426 2.395 1.293.856 2.41 1.705 3.288 2.486.455.372.827.755 1.167 1.076l.836.86.66.782m-62.233-33.476c.02.046-.5.317-1.35.667s-2.077.765-3.453 1.094a24.5 24.5 0 0 1-3.569.585c-.923.077-1.495.063-1.493.014-.01-.1 2.26-.31 4.983-.968l4.886-1.392" class="I"/><path d="M1462.633-121.476c.397 1.412-.753 2.775-2.172 2.575-.77-.108-1.405-.666-1.628-1.43l-.6-2.297.087.03c.376 1.378-.917 2.642-2.304 2.504-.937-.024-1.743-1.397-2.006-2.13-1.547.187-3.016-.744-3.614-1.78l-4.175-6.68-7.73-5.8 4.675-17.132 16.64 11.045c.653.52.752.74 1.79 1.727l10.74 10.127c-1.22.75-2.25.692-3.94 0s-9.11-5.824-9.11-5.824l3.344 15.062" class="H"/><path d="M1448.4-135.57c.016-.02.192.087.496.298l.55.394c.21.15.467.347.686.615s.427.6.566.99l.407 1.194.91 2.742 1.575 5 .548 2.106c-.053.016-.35-.766-.798-2.026l-1.676-4.97-.88-2.75-.374-1.203c-.106-.333-.268-.645-.478-.922-.192-.26-.404-.445-.6-.616l-.5-.444c-.278-.25-.423-.396-.408-.416m10.008 13.307c-.025.005-.106-.247-.238-.712l-.535-1.953-1.833-6.415c-.78-2.477-1.587-4.708-2.558-6.078-.477-.686-.974-1.147-1.363-1.395l-.628-.36c.003-.012.067-.001.19.03.124.024.295.095.51.2.43.217.98.672 1.502 1.368 1.06 1.383 1.916 3.635 2.7 6.123l1.734 6.463.426 1.986c.094.472.123.736.1.74m4.294 1.037c-.024.008-.127-.265-.29-.765l-.658-2.125-2.038-7.056-1.952-7.073c-.275-.884-.73-1.488-1.14-1.783-.405-.303-.694-.343-.69-.383.001-.01.074-.015.2.016.2.047.388.128.56.24.46.27.988.906 1.304 1.814l2.06 7.058 1.934 7.086.546 2.16.152.806" class="D"/></svg>